<?xml version="1.0" standalone="no"?><!DOCTYPE svg PUBLIC "-//W3C//DTD SVG 1.1//EN" "http://www.w3.org/Graphics/SVG/1.1/DTD/svg11.dtd"><svg class="icon" width="200px" height="200.00px" viewBox="0 0 1024 1024" version="1.1" style="fill: #333" xmlns="http://www.w3.org/2000/svg"><path d="M604.8 1024h156.8c144 0 262.4-118.4 262.4-262.4V262.4C1024 118.4 905.6 0 761.6 0H601.6c-3.2 0-6.4 3.2-6.4 6.4v1011.2c0 3.2 3.2 6.4 9.6 6.4z m195.2-563.2c57.6 0 102.4 48 102.4 102.4 0 57.6-48 102.4-102.4 102.4-57.6 0-102.4-44.8-102.4-102.4-3.2-57.6 44.8-102.4 102.4-102.4zM486.4 0H262.4C118.4 0 0 118.4 0 262.4v499.2C0 905.6 118.4 1024 262.4 1024h224c3.2 0 6.4-3.2 6.4-6.4V6.4c0-3.2-3.2-6.4-6.4-6.4zM412.8 940.8H262.4c-99.2 0-179.2-80-179.2-179.2V262.4c0-99.2 80-179.2 179.2-179.2h147.2l3.2 857.6zM160 307.2c0 54.4 41.6 96 96 96s96-41.6 96-96S310.4 211.2 256 211.2s-96 41.6-96 96z" /></svg>