<?xml version="1.0" encoding="utf-8"?>
<!-- Generator: Adobe Illustrator 21.0.0, SVG Export Plug-In . SVG Version: 6.00 Build 0)  -->
<svg version="1.1" id="图层_1" xmlns="http://www.w3.org/2000/svg" xmlns:xlink="http://www.w3.org/1999/xlink" x="0px" y="0px"
	 viewBox="0 0 200 200" style="enable-background:new 0 0 200 200;" xml:space="preserve">
<style type="text/css">
	.st0{fill:#333;}
</style>
<g id="XMLID_1_">
	<g>
		<polygon class="st0" points="130.7,86.7 103.3,134.2 103.3,103 		"/>
		<polygon class="st0" points="95.7,103 95.7,134.7 69.3,88.3 		"/>
		<polygon class="st0" points="125.7,80.3 100.2,96.3 73.3,80.3 		"/>
		<path class="st0" d="M159,65.7v65l-22.7-13.3l-4.3,7l22.7,13L100,170l-56.3-32.7L66.3,124l-4.3-7l-22.7,14V66L95,34v26.3h8.7V34
			L159,65.7z M99.5,156.7l49.5-85H50L99.5,156.7z"/>
		<path class="st0" d="M184.7,52v97.3L100,198.7l-85.7-49.3v-98L100,2L184.7,52z M167.3,139.7v-78l-67.8-40L31,61.7v78L99.5,179
			L167.3,139.7z"/>
	</g>
	<g>
	</g>
</g>
</svg>
