<?xml version="1.0" standalone="no"?><!DOCTYPE svg PUBLIC "-//W3C//DTD SVG 1.1//EN" "http://www.w3.org/Graphics/SVG/1.1/DTD/svg11.dtd"><svg class="icon" width="200px" height="200.00px" viewBox="128 128 768 768" version="1.1" xmlns="http://www.w3.org/2000/svg" style='{fill:#333}'><path d="M578.4023 602.6066c-81.0793 0-146.8344-65.7428-146.8344-146.8344 0-81.0793 65.7551-146.8467 146.8344-146.8467 81.0916 0 146.8467 65.7674 146.8467 146.8467C725.249 536.8637 659.4949 602.6066 578.4023 602.6066zM512.0102 157.654c-194.6593 0-352.4301 157.782-352.4301 352.4178 0 194.6358 157.7708 352.4178 352.4301 352.4178 194.6245 0 352.4301-157.782 352.4301-352.4178C864.4403 315.4371 706.6348 157.654 512.0102 157.654"  /><path d="M628.3387 514.5784c-3.5625 7.4906-10.0147 12.8225-19.6178 16.0901-9.5672 3.115-17.9313 2.7023-25.3512-1.2503-7.2909-3.9404-12.7519-11.1831-16.1495-21.6351-3.6096-10.8534-3.4796-19.9844 0.1178-27.4391 3.7161-7.4435 10.1919-12.7283 19.5236-15.8546 9.4249-3.0198 17.8483-2.7013 25.1976 1.109 7.4076 3.7755 12.8225 11.1247 16.386 21.9535C631.9483 498.0152 631.936 507.0049 628.3387 514.5784zM554.0772 431.8474c-6.3928-3.3147-10.794-8.8719-13.2946-16.5396-2.7843-8.4582-2.6542-15.8075 0.555-22.0477 3.1969-6.3119 9.0481-10.9005 17.4828-13.6612 8.446-2.8426 15.8546-2.6184 21.9423 0.555 6.2986 3.2082 10.7817 9.0481 13.6131 17.4121 2.4893 7.7025 2.3357 14.8163-0.8366 21.2224-2.985 6.358-8.7654 11.0295-17.2831 13.825C567.8684 435.4335 560.5192 435.198 554.0772 431.8474L554.0772 431.8474zM653.8783 446.3688c-4.353-4.0223-9.2252-7.3492-14.6043-9.9676-8.8003-4.2824-11.8088-10.5349-7.8797-18.1197 2.56-4.9541 3.9404-9.8744 4.1523-14.7579 0.4956-9.0245-0.4721-16.9636-2.7484-23.8766-5.0258-15.4184-15.3006-26.6721-30.4722-33.7275-15.2648-6.996-33.4787-7.0308-54.7369-0.0358-21.2931 7.0072-35.8615 17.9548-43.9788 32.642-8.0097 14.7579-9.602 29.8107-4.4124 45.2762 2.2661 6.913 6.3365 13.8373 11.9388 20.8681 3.1611 3.7868 7.338 7.0666 12.5747 9.815 7.8449 4.1175 8.9539 10.8298 4.2936 19.1693-2.7843 4.991-4.7299 10.369-5.804 16.1853-2.1821 11.4074-1.3087 23.1332 2.6081 35.0597 5.9095 17.836 16.9748 31.0374 33.408 39.5909 16.3625 8.5166 36.4165 8.8115 60.1518 0.9667 23.7824-7.809 40.2268-20.267 49.2278-37.1835 9.2723-16.8806 10.7592-34.305 4.8599-52.2015C668.5071 464.1946 662.3375 454.2853 653.8783 446.3688"  /></svg>