<?xml version="1.0" standalone="no"?><!DOCTYPE svg PUBLIC "-//W3C//DTD SVG 1.1//EN" "http://www.w3.org/Graphics/SVG/1.1/DTD/svg11.dtd"><svg class="icon" width="200px" height="155.50px" viewBox="0 0 1317 1024" version="1.1" style="fill: #333" xmlns="http://www.w3.org/2000/svg"><path d="M448 784.018286l9.142857-137.728-9.142857-298.861714q-0.585143-5.705143-4.315429-9.728t-9.435429-4.022857q-5.12 0-9.142857 4.022857t-4.022857 9.728l-7.972571 298.861714 7.972571 137.728q0.585143 5.705143 4.315429 9.435429t8.850286 3.730286q12.580571 0 13.677714-13.165714zM617.179429 767.414857l6.290286-120.539429-6.875429-334.848q0-9.142857-7.460571-13.677714-4.534857-2.852571-9.142857-2.852571t-9.142857 2.852571q-7.460571 4.534857-7.460571 13.677714l-0.585143 3.437714-5.705143 330.825143q0 0.585143 6.290286 134.875429l0 0.585143q0 5.705143 3.437714 9.728 5.12 6.290286 13.165714 6.290286 6.290286 0 11.410286-5.12 5.12-4.022857 5.12-11.410286zM19.968 573.147429l11.410286 73.142857-11.410286 71.972571q-1.170286 5.12-5.12 5.12t-5.12-5.12l-9.728-71.972571 9.728-73.142857q1.170286-5.12 5.12-5.12t5.12 5.12zM69.12 528.018286l14.848 118.272-14.848 116.004571q-1.170286 5.12-5.705143 5.12-5.12 0-5.12-5.705143l-13.165714-115.419429 13.165714-118.272q0-5.12 5.12-5.12 4.534857 0 5.705143 5.12zM121.709714 506.294857l14.262857 139.995429-14.262857 135.460571q0 6.290286-6.290286 6.290286-5.705143 0-6.875429-6.290286l-11.995429-135.460571 11.995429-139.995429q1.170286-6.875429 6.875429-6.875429 6.290286 0 6.290286 6.875429zM175.396571 502.272l13.165714 144.018286-13.165714 139.410286q-1.170286 7.460571-7.972571 7.460571-7.460571 0-7.460571-7.460571l-11.995429-139.410286 11.995429-144.018286q0-7.460571 7.460571-7.460571 6.875429 0 7.972571 7.460571zM229.156571 512.585143l11.995429 133.705143-11.995429 140.580571q-1.170286 9.142857-9.142857 9.142857-3.437714 0-5.997714-2.56t-2.56-6.582857l-11.410286-140.580571 11.410286-133.705143q0-3.437714 2.56-5.997714t5.997714-2.56q7.972571 0 9.142857 8.557714zM282.843429 429.129143l11.995429 217.161143-11.995429 140.580571q0 4.022857-2.852571 7.168t-6.875429 3.145143q-9.142857 0-10.313143-10.313143l-10.313143-140.580571 10.313143-217.161143q1.170286-10.313143 10.313143-10.313143 4.022857 0 6.875429 3.145143t2.852571 7.168zM336.603429 379.977143l10.825143 267.410286-10.825143 139.410286q0 4.534857-3.145143 7.68t-7.68 3.145143q-10.313143 0-11.410286-10.825143l-9.142857-139.410286 9.142857-267.410286q1.170286-10.825143 11.410286-10.825143 4.534857 0 7.68 3.145143t3.145143 7.68zM392.557714 357.156571l10.313143 289.133714-10.313143 138.313143q-1.170286 11.995429-12.580571 11.995429-10.825143 0-11.995429-11.995429l-9.142857-138.313143 9.142857-289.133714q0-5.12 3.730286-8.850286t8.265143-3.730286q5.12 0 8.557714 3.730286t4.022857 8.850286zM616.594286 781.165714l0 0 0 0zM503.442286 354.889143l8.557714 291.401143-8.557714 136.557714q0 5.705143-4.315429 10.020571t-10.020571 4.315429-9.728-4.022857-4.534857-10.313143l-7.972571-136.557714 7.972571-291.401143q0-6.290286 4.315429-10.313143t10.020571-4.022857 10.020571 4.022857 4.315429 10.313143zM559.981714 365.714286l7.972571 281.161143-7.972571 134.875429q0 6.290286-4.534857 10.825143t-10.825143 4.534857-10.825143-4.534857-5.12-10.825143l-6.875429-134.875429 6.875429-281.161143q0.585143-6.875429 5.12-11.410286t10.825143-4.534857 10.605714 4.534857 4.827429 11.410286zM681.179429 646.875429l-7.972571 132.022857q0 7.460571-5.12 12.580571t-12.580571 5.12-12.580571-5.12-5.705143-12.580571l-3.437714-65.170286-3.437714-66.852571 6.875429-363.446857 0-1.682286q1.170286-8.557714 6.875429-13.677714 5.12-4.022857 11.410286-4.022857 4.534857 0 8.557714 2.852571 7.972571 4.534857 9.142857 14.848zM1316.571429 635.977143q0 66.852571-47.396571 114.029714t-114.322286 47.177143l-449.170286 0q-7.460571-1.170286-12.580571-6.290286t-5.12-12.580571l0-513.682286q0-13.165714 16.018286-18.870857 48.566857-19.456 103.424-19.456 111.396571 0 193.170286 75.117714t91.428571 184.832q30.281143-12.580571 62.829714-12.580571 66.852571 0 114.322286 47.396571t47.396571 114.834286z" /></svg>