<svg xmlns="http://www.w3.org/2000/svg" viewBox="0 0 104.5 104.5"><defs><style>.a,.b{fill:#333;}.b{stroke:#333;stroke-linecap:round;stroke-linejoin:round;stroke-width:3px;fill-rule:evenodd;}</style></defs><path class="a" d="M71.05,23.68A47.27,47.27,0,1,0,118.32,71,47.34,47.34,0,0,0,71.05,23.68ZM71,27.88a3.16,3.16,0,1,1-.09,0ZM78.1,33a38.26,38.26,0,0,1,26.2,18.66l-3.67,8.28a2.86,2.86,0,0,0,1.44,3.75l7.06,3.13a37.76,37.76,0,0,1,.08,6.64h-3.93c-.39,0-.55.26-.55.64v1.8c0,4.24-2.39,5.17-4.49,5.4s-4.21-.84-4.49-2.06c-1.18-6.63-3.14-8-6.24-10.49,3.85-2.44,7.85-6,7.85-10.87,0-5.21-3.57-8.49-6-10.1a17.06,17.06,0,0,0-8.22-2.7H42.54A38.25,38.25,0,0,1,64,33l4.79,5a2.82,2.82,0,0,0,4,.09ZM33.9,56a3.16,3.16,0,1,1-.09,0Zm74.15.14a3.16,3.16,0,1,1-.09,0Zm-68.29.5h5.42V81.1H34.24A38.34,38.34,0,0,1,33,66.49l6.7-3a2.83,2.83,0,0,0,1.44-3.74Zm22.62.26H75.29c.67,0,4.71.77,4.71,3.8,0,2.51-3.1,3.41-5.65,3.41h-12Zm0,17.56h9.89c.9,0,4.83.26,6.08,5.28.39,1.54,1.26,6.56,1.85,8.17.59,1.8,3,5.4,5.53,5.4h16.14a37.31,37.31,0,0,1-3.54,4.1L91.76,96a2.84,2.84,0,0,0-3.37,2.18l-1.56,7.28a38.28,38.28,0,0,1-31.91-.15l-1.56-7.28A2.83,2.83,0,0,0,50,95.87l-6.43,1.38a38.85,38.85,0,0,1-3.32-3.92H71.52c.35,0,.59-.06.59-.39V81.88c0-.32-.24-.39-.59-.39H62.37ZM48,99.81a3.16,3.16,0,1,1-.09,0ZM94,100a3.16,3.16,0,1,1-.09,0Z" transform="translate(-18.8 -18.7)"/><path class="b" d="M115.68,71a44.63,44.63,0,0,1-89.26,0h0a44.63,44.63,0,0,1,89.26,0Zm-.84-4.31,7,4.31-7,4.31,6,5.59-7.66,2.87,4.78,6.65-8.09,1.32,3.4,7.46-8.19-.29,1.88,8L99,105l.29,8.19-7.46-3.4-1.32,8.09-6.65-4.78L81,120.72l-5.59-6-4.31,7-4.31-7-5.59,6-2.87-7.66-6.65,4.78-1.32-8.09-7.46,3.4.29-8.19-8,1.88,1.88-8-8.19.29,3.4-7.46-8.09-1.32,4.78-6.65-7.66-2.87,6-5.59L20.3,71l7-4.31-6-5.59,7.66-2.87-4.78-6.65,8.09-1.32-3.4-7.46L37,43l-1.88-8,8,1.88-.29-8.19,7.46,3.4,1.32-8.09,6.65,4.78,2.87-7.66,5.59,6,4.31-7,4.31,7,5.59-6,2.87,7.66,6.65-4.78,1.32,8.09,7.46-3.4L99,36.94l8-1.88-1.88,8,8.19-.29-3.4,7.46,8.09,1.32-4.78,6.65,7.66,2.87Z" transform="translate(-18.8 -18.7)"/></svg>