<svg xmlns="http://www.w3.org/2000/svg" viewBox="0 0 529.06 383"><defs><style>.cls-1{fill:#333;}.cls-2{fill:#fff;}</style></defs><title>Twitter header clipped</title><g id="leaf"><path class="cls-1" d="M946,185c50,104,298,148,329,266C1247,379,973,332,946,185Z" transform="translate(-946 -68)"/><path class="cls-1" d="M1218,68c-25,127,65,281,70,371C1331,302,1214,182,1218,68Z" transform="translate(-946 -68)"/><path class="cls-1" d="M1301,451c30-131,142-180,174-292C1478,271,1360,354,1301,451Z" transform="translate(-946 -68)"/></g><g id="text-box"><rect class="cls-2" x="44" y="122" width="420" height="150"/></g><g id="subtitle"><path class="cls-1" d="M1015.73,325H1014l1.53-14.55h4.63a3.52,3.52,0,0,1,2.75,1,3.6,3.6,0,0,1,.65,2.86l-.11,1.11a4.77,4.77,0,0,1-1,2.67,3.57,3.57,0,0,1-2.3,1.19l2.46,5.76h-1.91l-2.42-5.69h-2Zm.76-7.18h2.84a2.36,2.36,0,0,0,1.73-.57,3.08,3.08,0,0,0,.72-1.87l.11-1.13a2.24,2.24,0,0,0-.34-1.74,2,2,0,0,0-1.62-.55h-2.84Z" transform="translate(-946 -68)"/><path class="cls-1" d="M1033.72,325l.17-1.55h3l.82-7.81h-3l.16-1.55h4.71l-1,9.36h3l-.17,1.55Zm5.24-12.95a2,2,0,0,1-1-.2.73.73,0,0,1-.29-.8V311a1,1,0,0,1,.47-.82,2.08,2.08,0,0,1,1-.22,1.85,1.85,0,0,1,1,.22.76.76,0,0,1,.29.82v.1a1,1,0,0,1-.48.8A2.19,2.19,0,0,1,1039,312.05Z" transform="translate(-946 -68)"/><path class="cls-1" d="M1058.74,323.45a3.32,3.32,0,0,1-1.18,1.28,3.19,3.19,0,0,1-1.67.45,2.23,2.23,0,0,1-2-1.05,4.51,4.51,0,0,1-.47-2.89l.35-3.4a4.4,4.4,0,0,1,1.34-2.89,4.22,4.22,0,0,1,3-1.06,4,4,0,0,1,1.06.15,3.94,3.94,0,0,1,1,.4l.42-4h1.71L1060.74,325H1059l.16-1.55Zm-2.16.11a2.61,2.61,0,0,0,1.45-.43,5.37,5.37,0,0,0,1.35-1.35l.58-5.67a3,3,0,0,0-.9-.54,3.31,3.31,0,0,0-1.08-.17,2.44,2.44,0,0,0-1.79.61,3,3,0,0,0-.74,1.86l-.37,3.44a2.72,2.72,0,0,0,.25,1.7A1.37,1.37,0,0,0,1056.58,323.56Z" transform="translate(-946 -68)"/><path class="cls-1" d="M1072.48,325l.17-1.55h3l.82-7.81h-3l.16-1.55h4.71l-1,9.36h3l-.17,1.55Zm5.24-12.95a2,2,0,0,1-1-.2.73.73,0,0,1-.29-.8V311a1,1,0,0,1,.47-.82,2.08,2.08,0,0,1,1-.22,1.85,1.85,0,0,1,1,.22.76.76,0,0,1,.29.82v.1a1,1,0,0,1-.48.8A2.19,2.19,0,0,1,1077.72,312.05Z" transform="translate(-946 -68)"/><path class="cls-1" d="M1095.77,325.18a3.78,3.78,0,0,1-3-1,3.56,3.56,0,0,1-.72-2.84l.36-3.46a4.37,4.37,0,0,1,1.34-2.94,4.5,4.5,0,0,1,3.13-1,3.5,3.5,0,0,1,2.68.91,3.73,3.73,0,0,1,.78,2.8l-1.68.09a2.35,2.35,0,0,0-.39-1.77,2.15,2.15,0,0,0-1.57-.49,2.66,2.66,0,0,0-1.79.56,2.74,2.74,0,0,0-.79,1.83l-.36,3.49a2.11,2.11,0,0,0,.4,1.75,2.3,2.3,0,0,0,1.71.56,2.85,2.85,0,0,0,1.64-.4,2.22,2.22,0,0,0,.74-1.49l1.63.09a3.89,3.89,0,0,1-1.31,2.53A4.46,4.46,0,0,1,1095.77,325.18Z" transform="translate(-946 -68)"/><path class="cls-1" d="M1114.37,325.18a2.29,2.29,0,0,1-2-1,3.6,3.6,0,0,1-.53-2.56l.8-7.56h1.71l-.77,7.27a2.59,2.59,0,0,0,.26,1.65,1.32,1.32,0,0,0,1.2.55,2.7,2.7,0,0,0,1.43-.43,5.46,5.46,0,0,0,1.39-1.28l.81-7.76h1.71L1119.24,325h-1.71l.16-1.55h-.45a3,3,0,0,1-1.17,1.26A3.27,3.27,0,0,1,1114.37,325.18Z" transform="translate(-946 -68)"/><path class="cls-1" d="M1131,325l.16-1.55h3l1.2-11.45h-3l.17-1.55h4.72l-1.36,13h3l-.16,1.55Z" transform="translate(-946 -68)"/><path class="cls-1" d="M1154.08,325.18a3.49,3.49,0,0,1-2.76-1,3.61,3.61,0,0,1-.72-2.87l.37-3.42a4.38,4.38,0,0,1,1.33-2.92,4.18,4.18,0,0,1,3-1,3.42,3.42,0,0,1,2.73,1,3.62,3.62,0,0,1,.7,2.91l-.36,3.44a4,4,0,0,1-4.27,3.89Zm.16-1.54a2.35,2.35,0,0,0,1.68-.56,2.65,2.65,0,0,0,.72-1.75l.36-3.48a2.43,2.43,0,0,0-.34-1.81,1.91,1.91,0,0,0-1.56-.59,2.34,2.34,0,0,0-1.7.59,2.8,2.8,0,0,0-.72,1.81l-.37,3.48a2.27,2.27,0,0,0,.36,1.75A2,2,0,0,0,1154.24,323.64Z" transform="translate(-946 -68)"/><path class="cls-1" d="M1173,325.18a2.3,2.3,0,0,1-2-1,3.65,3.65,0,0,1-.52-2.56l.8-7.56H1173l-.77,7.27a2.59,2.59,0,0,0,.26,1.65,1.32,1.32,0,0,0,1.2.55,2.7,2.7,0,0,0,1.43-.43,5.46,5.46,0,0,0,1.39-1.28l.81-7.76H1179L1177.85,325h-1.71l.16-1.55h-.45a3,3,0,0,1-1.17,1.26A3.28,3.28,0,0,1,1173,325.18Z" transform="translate(-946 -68)"/><path class="cls-1" d="M1193.88,325.2a7.07,7.07,0,0,1-2.25-.36,5.23,5.23,0,0,1-1.88-1.09l.82-1.37a5.43,5.43,0,0,0,1.61.93,5.3,5.3,0,0,0,1.88.34,3.39,3.39,0,0,0,1.58-.33,1.4,1.4,0,0,0,.73-1.17,1.18,1.18,0,0,0-.45-1.19,6.74,6.74,0,0,0-2-.65,5.33,5.33,0,0,1-2.55-1.13,2.38,2.38,0,0,1-.6-2.09,3.24,3.24,0,0,1,1.24-2.35,4.09,4.09,0,0,1,2.62-.83,5.66,5.66,0,0,1,2.06.39,5,5,0,0,1,1.73,1.09l-.79,1.37a6.54,6.54,0,0,0-1.45-.93,4,4,0,0,0-1.7-.38,2.45,2.45,0,0,0-1.39.36,1.42,1.42,0,0,0-.61,1.15,1.13,1.13,0,0,0,.44,1.18,6.44,6.44,0,0,0,2,.68,5,5,0,0,1,2.54,1.13,2.37,2.37,0,0,1,.59,2.05,3.14,3.14,0,0,1-1.33,2.38A4.84,4.84,0,0,1,1193.88,325.2Z" transform="translate(-946 -68)"/><path class="cls-1" d="M1229.63,325l1.52-14.55h8L1239,312h-6.29l-.6,5.86h5.22l-.17,1.54h-5.22l-.6,5.64Z" transform="translate(-946 -68)"/><path class="cls-1" d="M1252.31,325.18a3.48,3.48,0,0,1-2.75-1,3.61,3.61,0,0,1-.72-2.87l.37-3.42a4.41,4.41,0,0,1,1.32-2.92,4.2,4.2,0,0,1,3-1,3.43,3.43,0,0,1,2.74,1,3.66,3.66,0,0,1,.7,2.91l-.36,3.44a4.32,4.32,0,0,1-1.3,2.87A4.26,4.26,0,0,1,1252.31,325.18Zm.17-1.54a2.35,2.35,0,0,0,1.68-.56,2.76,2.76,0,0,0,.72-1.75l.36-3.48a2.43,2.43,0,0,0-.34-1.81,1.92,1.92,0,0,0-1.57-.59,2.32,2.32,0,0,0-1.69.59,2.86,2.86,0,0,0-.73,1.81l-.36,3.48a2.23,2.23,0,0,0,.35,1.75A2,2,0,0,0,1252.48,323.64Z" transform="translate(-946 -68)"/><path class="cls-1" d="M1268.7,325l1.15-10.91h1.73l-.19,1.67h.46a2.81,2.81,0,0,1,1.13-1.41,3,3,0,0,1,1.65-.44,2,2,0,0,1,1.65.77,3,3,0,0,1,.46,2.19l-.18,1.71h-1.66l.11-1.09a2.38,2.38,0,0,0-.19-1.48,1.17,1.17,0,0,0-1.08-.48,2.34,2.34,0,0,0-1.32.42,4.21,4.21,0,0,0-1.17,1.23l-.82,7.82Z" transform="translate(-946 -68)"/><path class="cls-1" d="M1295.61,322.62a4.37,4.37,0,0,1-1.52,1.95,4.78,4.78,0,0,1-2.66.61,3.67,3.67,0,0,1-2.76-1,3.49,3.49,0,0,1-.71-2.93l.34-3.4a4.32,4.32,0,0,1,1.4-3,4.43,4.43,0,0,1,2.91-1,3.52,3.52,0,0,1,2.69,1A3.78,3.78,0,0,1,1296,318l-.18,1.87h-6l-.15,1.4a2.5,2.5,0,0,0,.34,1.88,2,2,0,0,0,1.57.56,2.92,2.92,0,0,0,1.59-.37,2.78,2.78,0,0,0,.9-1.19Zm-5.6-4.71-.07.65h4.32l.06-.49a3,3,0,0,0-.32-2,1.79,1.79,0,0,0-1.55-.65,2.24,2.24,0,0,0-1.7.63A3,3,0,0,0,1290,317.91Z" transform="translate(-946 -68)"/><path class="cls-1" d="M1307,325l.16-1.55h3l.82-7.81h-3l.16-1.55h4.71l-1,9.36h3l-.17,1.55Zm5.23-12.95a2,2,0,0,1-1-.2.73.73,0,0,1-.29-.8V311a1,1,0,0,1,.47-.82,2.08,2.08,0,0,1,1-.22,1.85,1.85,0,0,1,1,.22.76.76,0,0,1,.29.82v.1a1,1,0,0,1-.48.8A2.19,2.19,0,0,1,1312.18,312.05Z" transform="translate(-946 -68)"/><path class="cls-1" d="M1335.07,325.93a2.92,2.92,0,0,1-1.15,2.18,3.89,3.89,0,0,1-2.32.71h-2.84a3.55,3.55,0,0,1-2.24-.64,2.12,2.12,0,0,1-.68-2.05,2.4,2.4,0,0,1,.55-1.38,1.82,1.82,0,0,1,1.21-.59l0-.38a1.24,1.24,0,0,1-.83-.51,1.89,1.89,0,0,1-.21-1.29,2.8,2.8,0,0,1,.58-1.39,2,2,0,0,1,1.48-.72l0-.32a1.55,1.55,0,0,1-.94-.9,2.58,2.58,0,0,1-.17-1.12l.06-.55a3,3,0,0,1,1.13-2.07,3.94,3.94,0,0,1,2.61-.82H1336l-.16,1.6-2.33-.45,0,.34a1.39,1.39,0,0,1,.84.77,2,2,0,0,1,.21,1.12l-.07.53a3,3,0,0,1-1.05,2,4,4,0,0,1-2.68.78h-1.76a.89.89,0,0,0-.68.25,1.26,1.26,0,0,0-.3.84,1.06,1.06,0,0,0,.21.87,1,1,0,0,0,.82.29h3.37a3.09,3.09,0,0,1,2.09.68A2.43,2.43,0,0,1,1335.07,325.93Zm-6.18,1.49h3a1.89,1.89,0,0,0,1.11-.32,1.43,1.43,0,0,0,.53-1.1,1.18,1.18,0,0,0-.27-1.08,1.36,1.36,0,0,0-1-.32h-4.64l-.13,1.27a1.46,1.46,0,0,0,.26,1.17A1.39,1.39,0,0,0,1328.89,327.42Zm2-8a2.23,2.23,0,0,0,1.39-.4,1.83,1.83,0,0,0,.59-1.29l.05-.57a1.5,1.5,0,0,0-.32-1.29,1.78,1.78,0,0,0-1.3-.4,2.2,2.2,0,0,0-1.4.4,1.79,1.79,0,0,0-.6,1.29l0,.57a1.5,1.5,0,0,0,.33,1.29A1.87,1.87,0,0,0,1330.86,319.44Z" transform="translate(-946 -68)"/><path class="cls-1" d="M1346.49,325l1.14-10.91h1.71l-.16,1.55h.45a3.68,3.68,0,0,1,1.27-1.27,3.06,3.06,0,0,1,1.62-.46,2.29,2.29,0,0,1,2,.94,3.74,3.74,0,0,1,.51,2.59l-.8,7.56h-1.71l.77-7.24a2.65,2.65,0,0,0-.26-1.66,1.31,1.31,0,0,0-1.2-.57,2.7,2.7,0,0,0-1.43.43,5.27,5.27,0,0,0-1.39,1.31l-.81,7.73Z" transform="translate(-946 -68)"/><path class="cls-1" d="M1374.42,322.62a4.37,4.37,0,0,1-1.52,1.95,4.78,4.78,0,0,1-2.66.61,3.67,3.67,0,0,1-2.76-1,3.49,3.49,0,0,1-.71-2.93l.34-3.4a4.32,4.32,0,0,1,1.4-3,4.43,4.43,0,0,1,2.91-1,3.52,3.52,0,0,1,2.69,1,3.78,3.78,0,0,1,.73,3.08l-.18,1.87h-6l-.14,1.4a2.46,2.46,0,0,0,.33,1.88,2,2,0,0,0,1.57.56,2.32,2.32,0,0,0,2.5-1.56Zm-5.6-4.71-.07.65h4.33l.05-.49a3,3,0,0,0-.32-2,1.79,1.79,0,0,0-1.55-.65,2.24,2.24,0,0,0-1.7.63A3.1,3.1,0,0,0,1368.82,317.91Z" transform="translate(-946 -68)"/><path class="cls-1" d="M1386.6,325l1.15-10.91h1.72l-.18,1.67h.46a2.79,2.79,0,0,1,1.12-1.41,3.1,3.1,0,0,1,1.66-.44,2,2,0,0,1,1.64.77,3,3,0,0,1,.47,2.19l-.18,1.71h-1.66l.11-1.09a2.38,2.38,0,0,0-.19-1.48,1.17,1.17,0,0,0-1.08-.48,2.34,2.34,0,0,0-1.32.42,4.21,4.21,0,0,0-1.17,1.23l-.82,7.82Z" transform="translate(-946 -68)"/></g><g id="text"><rect class="cls-1" x="354" y="132" width="100" height="100"/><rect class="cls-1" x="154" y="132" width="100" height="100"/><path class="cls-1" d="M1077.72,223.78a6.54,6.54,0,0,1-3.28,1.68v58.65c-.16.64-3.92,2.56-6.88,2.56h-1.28v-7H1032.2v4.56c0,1-3,3-6.48,3h-1.36V218.18l8.48,3.52h32.64l4.08-4.4Zm-45.52.24v25h34.08V224Zm34.08,53.36v-26H1032.2v26Z" transform="translate(-946 -68)"/><path class="cls-2" d="M1128.63,264.75c3.52-1.37,7.28-2.89,11-4.41l.4.88c-5.12,3.92-12.64,9.77-22.88,16.32a3.36,3.36,0,0,1-1.76,2.33l-4-9c2.24-.65,5.76-1.85,10.08-3.37v-27H1113l-.64-2.32h9.12V215.22l10.16,1c-.24,1.12-.88,1.92-3,2.16V238.1h1.44l3.76-5.92s4.24,4.24,6.56,7c-.16.88-1,1.28-2.08,1.28h-9.68Zm55,12c2.72,1,3.52,1.83,3.52,3.28,0,3.76-3.92,5-21.52,5h-11.52c-9,0-12.16-1.6-12.16-8.49V245.46l-8.72,3.2-1.52-1.92L1142,242.9v-23l10.16,1.2c-.16,1-1,1.92-2.88,2.24v16.88l8.64-3.2V213.7l10,1c-.16,1.12-.8,1.92-2.88,2.24v17.44l8.32-3.12.72-.24H1174l3.92-3.84,7.2,5.92a4.91,4.91,0,0,1-3,1.28c-.24,21.21-1,27.84-4.08,30.64a10.72,10.72,0,0,1-7.6,2.65c0-2.17-.08-3.92-.88-4.89a6.82,6.82,0,0,0-4-2.15v-1.29c1.52.16,4,.33,5.2.33s1.52-.17,2-.73c1.36-1.44,1.92-8.32,2.16-25.68l-9.84,3.6v33.2c0,.81-3.12,2.4-5.76,2.4h-1.36v-33l-8.64,3.2v32c0,2.32,1,3.2,5.6,3.2h11.28a94.93,94.93,0,0,0,10-.32,3.24,3.24,0,0,0,2.64-1.21c1-1.43,2.32-5.84,3.76-11.52h.88Z" transform="translate(-946 -68)"/><path class="cls-1" d="M1212.59,232.82c19.36,1.68,14.16,15.68,7,11.12-1-3.76-4.48-8.08-7.6-10.48Zm24.48-3.28c-3.28,9.52-9.36,27-10.4,31a28.59,28.59,0,0,0-1.28,7.12c.16,4,2.88,7.2,2.64,13.92-.16,3.84-2.32,6.16-5.76,6.16-1.6,0-3.12-1.28-3.6-4,1.36-8.32,1-15.2-.88-16.4a7.63,7.63,0,0,0-4-1.2v-1.68h3.52c1.2,0,1.44,0,2.32-1.52,1.68-2.88,1.68-2.88,16.08-33.68Zm-18.24-14.8c20,1.52,15.44,15.92,7.92,11.84-1.28-4-5.28-8.56-8.56-11.2Zm60.56,40.64s5,4.16,8.08,7c-.24.88-1,1.28-2.16,1.28h-22.4v14.4c0,5.6-1.2,8.8-10.72,9.68-.24-2.32-.72-4.16-2-5.36s-3.2-2.16-7.28-2.72v-1.2s9,.64,10.8.64c1.28,0,1.68-.4,1.68-1.52V263.7H1232l-.64-2.32h24.08v-8.64l5.68.56a104.25,104.25,0,0,0,9.2-7.84h-33l-.72-2.32h35.12l4.56-4.32,7.6,6.8c-.56.64-1.52.8-3.28.88-4.48,2.24-10.56,5-16.24,7.12l1.28.08c-.16,1.12-1,1.76-2.72,2v5.68h11.92Zm4.08-34.4c-.88.72-2.56.72-4.88-.24a284.79,284.79,0,0,1-42.64,3.44l-.16-1.28c13.84-2,31-6.16,39.92-9.68Zm-44.24,5.36c16.32,6,8.8,18.4,3,12.8.32-4.32-1.68-9.28-3.92-12.24Zm13.84-1.52c16.64,6.64,9,19.36,3.28,13.68.24-4.48-1.76-9.76-4.08-13.2Zm12.4,17a124.61,124.61,0,0,0,9.68-18.24l9.52,5c-.32.8-1.28,1.36-3,1a102.53,102.53,0,0,1-15.52,12.72Z" transform="translate(-946 -68)"/><path class="cls-2" d="M1333.82,225.14h-20.56l-.56-2.32h21.12v-9.44l10.08,1c-.08,1.12-.8,1.92-2.8,2.16v6.32h17.6v-9.44l10.16,1c-.16,1.12-.8,1.92-2.88,2.16v6.32h9.36l4.4-5.6s4.88,3.92,7.76,6.64c-.16.88-1,1.28-2.16,1.28H1366v5.92c0,.64-2.56,1.68-5.84,1.76-.4,1-1.36,1.6-3.28,1.36-.4,1-.88,2.24-1.36,3.52h17l4.32-5.76s5,4,7.92,6.8c-.24.88-1,1.28-2.16,1.28h-28c-1.6,4.24-3.68,9-5.28,12.65h9V242.26l10.08,1c-.16,1.12-.8,1.92-3,2.16v7.21h6.48l4.32-5.69s5,3.92,7.76,6.73a1.92,1.92,0,0,1-2.08,1.27h-16.48v8.73h9l4.48-5.84s5,4,8,6.88c-.24.88-1,1.28-2.16,1.28h-19.36V276.5c0,.73-3,2-5.84,2h-1.28V266h-21.2l-.64-2.32h21.84V255h-9.36l-3.2,3.28-7.12-5.36a18,18,0,0,1,3.68-1.76c1.44-3.12,3.12-7.2,4.56-11.12h-10l-.64-2.32h11.6c1.12-3.12,2.16-6,2.8-7.92l8.08,2.48v-7.12h-17.6v6.24c0,.72-3,1.76-6,1.76h-1.28Zm-2.64,48.65c6.32,4.88,15.2,5.84,30.72,5.84,9,0,16.56,0,25.68-.48v1c-3.12.56-4.8,3.28-5.12,6.16h-22.88c-15.92,0-23-2.72-29.68-10.24-1.2-1.2-2.08-1-2.8.08-1.6,2-5.28,6.39-7.68,9.84a1.29,1.29,0,0,1-.72,1.68l-5.2-7.76c3.28-1.6,7.52-4.08,10.64-5.76V252.9h-9.92l-.4-2.32h9.2l3.84-5.2,8.4,6.88c-.64.64-1.76,1.28-4.08,1.68ZM1319.42,231c19.28,4.08,13,18.08,6.08,13-.72-4.32-3.92-9.44-6.88-12.56Z" transform="translate(-946 -68)"/></g></svg>